<svg viewBox="0 0 193 170" xmlns="http://www.w3.org/2000/svg" overflow="hidden"><defs><clipPath id="a"><path d="M225 134h193v170H225z"/></clipPath></defs><g clip-path="url(#a)" transform="translate(-225 -134)" fill="#42AC49" fill-rule="evenodd"><path d="m361.92 167-4.032.101-4.031.331-4.431.557-5.164.753-2.262.695.441 5.922.821 11.864.463 5.955 3.375-.75 5.23-.972 2.083-.338 2.091-.251 4.591-.264 4.564.115 4.529.583 4.484 1.138 5.612 2.425 4.877 3.639 3.085 3.55 2.353 3.91 1.62 4.268.882 4.624.136 2.05-.024 2.042-.49 4.047-1.629 5.742-2.531 5.422-2.102 3.419-2.352 3.226-2.559 3.067-3.11 3.339-.444.344-.649.576-.176-.326-.079-.25-7.333-8.137-.41-.409-.448-.349-1.261-.674-1.251-.108-1.161.454-14.388 43.307-.834 4.749.695 1.406 1.314.889 1.817.257.324-.016 17.352-3.462 20.926-4.078 7.03-1.448 2.703-2.759-.046-1.041-.295-.929-.495-.846-.646-.788-6.612-7.247-.452-.565.058-.211 2.184-2.181 3.88-4.051 3.552-4.301 3.22-4.551 2.884-4.801 2.275-4.534 1.896-4.673 1.504-4.817 1.098-4.968.749-7.11.016-3.558-.208-3.557-.537-4.054-.885-3.973-1.229-3.888-1.569-3.799-2.577-4.921-3.039-4.565-3.537-4.193-4.069-3.803-3.682-2.773-3.885-2.402-4.085-2.035-4.284-1.674-6.593-1.834-6.769-1.087-4.036-.327-4.033-.118ZM276.851 135l-4.706.267-5.109.854-4.986 1.436-4.574 1.782-4.338 2.192-4.096 2.608-3.847 3.033-3.894 3.771-3.43 4.093-2.978 4.401-2.542 4.698-2.122 4.982-1.567 4.75-1.189 4.818-.828 4.879-.485 4.937-.16 4.989.062 2.372.3 4.745.097 2.374 6.786 5.003 20.279 9.955.162-.023.214.023-.863-2.998-1.349-4.983-1.032-5.035-.677-5.092-.283-5.154.173-5.45.739-5.337 1.397-5.197 2.149-5.031 2.598-4.202 3.169-3.604 3.771-2.968 4.405-2.291 4.028-1.3 4.073-.612 4.117.082 4.161.785 4.416 1.593 4.154 2.189 1.765 1.118-.174.22-.073.152-6.861 4.721-2.757 3.768.364 1.253 42.314 20.091 2.789.812 1.183-.033 2.389-3.628.007-.703-.089-1.792-.286-3.28-1.268-18.739-1.582-21.657-2.954-2.971-1.388.247-.639.239-.611.355-9.914 6.851-4.182-3.24-3.74-2.732-3.902-2.405-4.062-2.072-4.219-1.741-4.372-1.415-4.61-1.046-4.646-.572-4.677-.135ZM238.875 222l-2.797 3.024-.078.749.046 2.003.119 2.561.885 24.337.703 17.306 3.295 2.975.713-.083.67-.198.636-.29.61-.358 9.586-6.177.171.181.127.101 3.074 4.461 3.092 4.255 3.198 4.177 3.306 4.096 2.729 3.226 2.875 3.091 4.385 3.727 4.885 3.071 4.372 2.163 4.656 1.377 6.206.987 3.002.206 3.007-.027 7.711-1.02 4.677-.878 4.652-1.005 4.628-1.112 9.059-2.482 3.888-1.055.451-.448 7.544-24.363 1.009-3.488-4.182 1.578-4.837 1.702-4.867 1.608-4.899 1.509-4.935 1.399-4.585 1.171-4.612 1.052-4.632.958-4.648.888-3.368.27-1.688-.079-4.632-.977-3.631-2.154-3.115-2.859-3.586-4.305-3.453-4.406-3.333-4.496-3.332-4.728-.012-.213-.063-.21.636-.451 7.637-4.9 1.163-.779.499-.473.988-1.32.275-1.358-.433-1.314-1.139-1.187-.654-.479-.736-.38-11.913-5.778-28.373-13.888-.665-.244-.67-.164-1.297-.083Z"/></g></svg>